<svg width="1200" height="820" viewBox="0 0 1200 820" fill="none" xmlns="http://www.w3.org/2000/svg">
  <rect width="1200" height="820" rx="30" fill="#F8FAFC"/>
  <rect width="245" height="820" fill="#111827"/>
  <rect x="36" y="43" width="46" height="46" rx="13" fill="#1CB8B2"/>
  <rect x="99" y="50" width="104" height="13" rx="6.5" fill="#F8FAFC"/>
  <rect x="99" y="72" width="72" height="9" rx="4.5" fill="#64748B"/>
  <rect x="32" y="137" width="181" height="48" rx="13" fill="#29476F"/>
  <circle cx="56" cy="161" r="7" fill="#3C65A6"/>
  <rect x="74" y="155" width="78" height="11" rx="5.5" fill="#DCE8F5"/>
  <g fill="#475569">
    <rect x="42" y="222" width="102" height="10" rx="5"/><rect x="42" y="271" width="126" height="10" rx="5"/>
    <rect x="42" y="320" width="91" height="10" rx="5"/><rect x="42" y="369" width="114" height="10" rx="5"/>
  </g>
  <rect x="285" y="54" width="194" height="18" rx="9" fill="#111827"/>
  <rect x="285" y="87" width="316" height="10" rx="5" fill="#94A3B8"/>
  <rect x="285" y="144" width="270" height="166" rx="23" fill="#E8EEF7"/>
  <rect x="583" y="144" width="270" height="166" rx="23" fill="#E9F7F7"/>
  <rect x="881" y="144" width="270" height="166" rx="23" fill="#E8F3ED"/>
  <circle cx="331" cy="191" r="21" fill="#1CB8B2"/>
  <circle cx="629" cy="191" r="21" fill="#3C65A6"/>
  <circle cx="927" cy="191" r="21" fill="#198754"/>
  <g fill="#334155"><rect x="315" y="240" width="113" height="12" rx="6"/><rect x="613" y="240" width="122" height="12" rx="6"/><rect x="911" y="240" width="101" height="12" rx="6"/></g>
  <g fill="#94A3B8"><rect x="315" y="266" width="178" height="8" rx="4"/><rect x="613" y="266" width="168" height="8" rx="4"/><rect x="911" y="266" width="174" height="8" rx="4"/></g>
  <rect x="285" y="349" width="556" height="413" rx="24" fill="white" stroke="#E2E8F0" stroke-width="2"/>
  <rect x="873" y="349" width="278" height="413" rx="24" fill="white" stroke="#E2E8F0" stroke-width="2"/>
  <rect x="318" y="384" width="130" height="15" rx="7.5" fill="#1E293B"/>
  <rect x="318" y="431" width="489" height="68" rx="15" fill="#F1F5FA"/>
  <rect x="338" y="450" width="37" height="31" rx="9" fill="#1CB8B2"/>
  <rect x="394" y="451" width="127" height="10" rx="5" fill="#475569"/>
  <rect x="394" y="472" width="196" height="8" rx="4" fill="#A8A29E"/>
  <rect x="318" y="516" width="489" height="68" rx="15" fill="#F8FAFC" stroke="#E2E8F0"/>
  <rect x="338" y="535" width="37" height="31" rx="9" fill="#3C65A6"/>
  <rect x="394" y="536" width="144" height="10" rx="5" fill="#475569"/>
  <rect x="394" y="557" width="172" height="8" rx="4" fill="#A8A29E"/>
  <rect x="318" y="601" width="489" height="68" rx="15" fill="#F8FAFC" stroke="#E2E8F0"/>
  <rect x="338" y="620" width="37" height="31" rx="9" fill="#198754"/>
  <rect x="394" y="621" width="118" height="10" rx="5" fill="#475569"/>
  <rect x="394" y="642" width="205" height="8" rx="4" fill="#A8A29E"/>
  <rect x="905" y="384" width="108" height="15" rx="7.5" fill="#1E293B"/>
  <circle cx="1012" cy="528" r="88" fill="#F1F5FA"/>
  <path d="M1012 440A88 88 0 0 1 1097 551L1012 528V440Z" fill="#1CB8B2"/>
  <path d="M1097 551A88 88 0 0 1 958 599L1012 528L1097 551Z" fill="#3C65A6"/>
  <path d="M958 599A88 88 0 0 1 1012 440V528L958 599Z" fill="#8DDDD9"/>
  <rect x="917" y="655" width="190" height="9" rx="4.5" fill="#CBD5E1"/>
  <rect x="917" y="681" width="151" height="9" rx="4.5" fill="#CBD5E1"/>
</svg>
