<svg width="244" height="60" viewBox="0 0 244 60" fill="none" xmlns="http://www.w3.org/2000/svg">
<path d="M21 6C22.6594 6 24 7.34062 24 9V12H36V9C36 7.34062 37.3406 6 39 6C40.6594 6 42 7.34062 42 9V12H45C48.3094 12 51 14.6906 51 18V45C51 48.3094 48.3094 51 45 51H15C11.6906 51 9 48.3094 9 45V18C9 14.6906 11.6906 12 15 12H18V9C18 7.34062 19.3406 6 21 6ZM30 24C28.7531 24 27.75 25.0031 27.75 26.25V30.75H23.25C22.0031 30.75 21 31.7531 21 33C21 34.2469 22.0031 35.25 23.25 35.25H27.75V39.75C27.75 40.9969 28.7531 42 30 42C31.2469 42 32.25 40.9969 32.25 39.75V35.25H36.75C37.9969 35.25 39 34.2469 39 33C39 31.7531 37.9969 30.75 36.75 30.75H32.25V26.25C32.25 25.0031 31.2469 24 30 24Z" fill="#1CB8B2"/>
<path d="M90.424 20.536V43H84.952V29.528L79.928 43H75.512L70.456 29.496V43H64.984V20.536H71.448L77.752 36.088L83.992 20.536H90.424ZM112.919 25.144L101.719 51.48H95.831L99.927 42.392L92.663 25.144H98.775L102.903 36.312L106.999 25.144H112.919ZM123.634 20.536C126.002 20.536 128.071 21.0053 129.842 21.944C131.612 22.8827 132.978 24.2053 133.938 25.912C134.919 27.5973 135.41 29.5493 135.41 31.768C135.41 33.9653 134.919 35.9173 133.938 37.624C132.978 39.3307 131.602 40.6533 129.81 41.592C128.039 42.5307 125.98 43 123.634 43H115.218V20.536H123.634ZM123.282 38.264C125.351 38.264 126.962 37.6987 128.114 36.568C129.266 35.4373 129.842 33.8373 129.842 31.768C129.842 29.6987 129.266 28.088 128.114 26.936C126.962 25.784 125.351 25.208 123.282 25.208H120.69V38.264H123.282ZM146.916 43.256C145.166 43.256 143.588 42.8827 142.18 42.136C140.793 41.3893 139.694 40.3227 138.884 38.936C138.094 37.5493 137.7 35.928 137.7 34.072C137.7 32.2373 138.105 30.6267 138.916 29.24C139.726 27.832 140.836 26.7547 142.244 26.008C143.652 25.2613 145.23 24.888 146.98 24.888C148.729 24.888 150.308 25.2613 151.716 26.008C153.124 26.7547 154.233 27.832 155.044 29.24C155.854 30.6267 156.26 32.2373 156.26 34.072C156.26 35.9067 155.844 37.528 155.012 38.936C154.201 40.3227 153.081 41.3893 151.652 42.136C150.244 42.8827 148.665 43.256 146.916 43.256ZM146.916 38.52C147.961 38.52 148.846 38.136 149.572 37.368C150.318 36.6 150.692 35.5013 150.692 34.072C150.692 32.6427 150.329 31.544 149.604 30.776C148.9 30.008 148.025 29.624 146.98 29.624C145.913 29.624 145.028 30.008 144.324 30.776C143.62 31.5227 143.268 32.6213 143.268 34.072C143.268 35.5013 143.609 36.6 144.292 37.368C144.996 38.136 145.87 38.52 146.916 38.52ZM158.395 34.072C158.395 32.216 158.768 30.5947 159.515 29.208C160.283 27.8213 161.339 26.7547 162.683 26.008C164.048 25.2613 165.605 24.888 167.355 24.888C169.595 24.888 171.461 25.4747 172.955 26.648C174.469 27.8213 175.461 29.4747 175.931 31.608H170.107C169.616 30.2427 168.667 29.56 167.259 29.56C166.256 29.56 165.456 29.9547 164.859 30.744C164.261 31.512 163.963 32.6213 163.963 34.072C163.963 35.5227 164.261 36.6427 164.859 37.432C165.456 38.2 166.256 38.584 167.259 38.584C168.667 38.584 169.616 37.9013 170.107 36.536H175.931C175.461 38.6267 174.469 40.2693 172.955 41.464C171.44 42.6587 169.573 43.256 167.355 43.256C165.605 43.256 164.048 42.8827 162.683 42.136C161.339 41.3893 160.283 40.3227 159.515 38.936C158.768 37.5493 158.395 35.928 158.395 34.072ZM187.594 20.536C189.962 20.536 192.031 21.0053 193.802 21.944C195.572 22.8827 196.938 24.2053 197.898 25.912C198.879 27.5973 199.37 29.5493 199.37 31.768C199.37 33.9653 198.879 35.9173 197.898 37.624C196.938 39.3307 195.562 40.6533 193.77 41.592C191.999 42.5307 189.94 43 187.594 43H179.178V20.536H187.594ZM187.242 38.264C189.311 38.264 190.922 37.6987 192.074 36.568C193.226 35.4373 193.802 33.8373 193.802 31.768C193.802 29.6987 193.226 28.088 192.074 26.936C190.922 25.784 189.311 25.208 187.242 25.208H184.65V38.264H187.242ZM201.66 34.04C201.66 32.2053 202.001 30.5947 202.684 29.208C203.388 27.8213 204.337 26.7547 205.532 26.008C206.726 25.2613 208.06 24.888 209.532 24.888C210.79 24.888 211.889 25.144 212.828 25.656C213.788 26.168 214.524 26.84 215.036 27.672V25.144H220.508V43H215.036V40.472C214.502 41.304 213.756 41.976 212.796 42.488C211.857 43 210.758 43.256 209.5 43.256C208.049 43.256 206.726 42.8827 205.532 42.136C204.337 41.368 203.388 40.2907 202.684 38.904C202.001 37.496 201.66 35.8747 201.66 34.04ZM215.036 34.072C215.036 32.7067 214.652 31.6293 213.884 30.84C213.137 30.0507 212.22 29.656 211.132 29.656C210.044 29.656 209.116 30.0507 208.348 30.84C207.601 31.608 207.228 32.6747 207.228 34.04C207.228 35.4053 207.601 36.4933 208.348 37.304C209.116 38.0933 210.044 38.488 211.132 38.488C212.22 38.488 213.137 38.0933 213.884 37.304C214.652 36.5147 215.036 35.4373 215.036 34.072ZM243.027 25.144L231.827 51.48H225.939L230.035 42.392L222.771 25.144H228.883L233.011 36.312L237.107 25.144H243.027Z" fill="#1F3557"/>
</svg>
