<svg width="346" height="264" viewBox="0 0 346 264" fill="none" xmlns="http://www.w3.org/2000/svg">
<g clip-path="url(#clip0_58_801)">
<path d="M0 261.326C0 261.712 0.349536 262.021 0.784798 262.021H345.215C345.65 262.021 346 261.712 346 261.326C346 260.941 345.65 260.631 345.215 260.631H0.784798C0.349531 260.631 0 260.941 0 261.326Z" fill="#3F3C57"/>
<path d="M112.378 28.0565L116.123 43.189L108.156 64.2519L95.3207 41.6215L97.1016 28.4926L112.378 28.0565Z" fill="#FDB4B4"/>
<path d="M116.819 42.4053H94.6567V66.1133H116.819V42.4053Z" fill="#3C65A6"/>
<path d="M107.706 35.679C116.065 35.679 122.841 29.6795 122.841 22.2788C122.841 14.878 116.065 8.87854 107.706 8.87854C99.3466 8.87854 92.5703 14.878 92.5703 22.2788C92.5703 29.6795 99.3466 35.679 107.706 35.679Z" fill="#FDB4B4"/>
<path d="M94.531 32.2432C94.531 32.2432 83.2491 13.796 93.421 4.91871C103.593 -3.95857 111.759 1.891 111.759 1.891L116.421 1.72416C116.421 1.72416 117.394 4.97307 118.962 3.2143C120.53 1.45553 123.364 7.86074 123.364 7.86074C128.623 16.2467 110.391 18.1253 110.391 18.1253C110.391 18.1253 111.707 21.8383 110.369 22.6159C109.031 23.3935 105.456 26.3187 105.456 26.3187L102.256 28.4586L100.354 25.8931C100.354 25.8931 98.3674 24.5048 97.3637 25.088C96.3601 25.6712 97.7406 33.3446 97.7406 33.3446L94.531 32.2432Z" fill="#2E2E41"/>
<path d="M76.374 167.956L70.5874 244.378L84.8128 244.805L103.619 168.597L76.374 167.956Z" fill="#2E2E41"/>
<path d="M110.853 167.53L105.066 243.952L119.291 244.378L138.098 168.17L110.853 167.53Z" fill="#2E2E41"/>
<path d="M72.8895 185.417L80.4624 102.182L68.8491 58.8403C67.8478 52.3975 72.4329 46.3013 79.5095 44.639L90.8733 41.9697L95.903 37.5164L107.343 59.8844L114.489 37.5334L120.061 41.1215L136.588 47.5771L136.58 47.7282L133.929 100.085L139.847 184.676L139.584 184.679L72.8895 185.417Z" fill="#E8E9EA"/>
<path d="M118.378 243.51L122.497 254.397C122.497 254.397 138.612 256.337 138.862 260.754C139.113 265.17 116.962 262.614 103.991 263.191C91.02 263.768 101.817 251.332 101.817 251.332L103.199 244.185L118.378 243.51Z" fill="#2E2E41"/>
<path d="M84.7399 242.726L88.8589 253.613C88.8589 253.613 104.973 255.553 105.224 259.97C105.475 264.387 83.3237 261.83 70.3528 262.407C57.3819 262.984 68.1792 250.548 68.1792 250.548L69.5614 243.402L84.7399 242.726Z" fill="#2E2E41"/>
<path d="M64.6438 141.212C64.4691 139.065 64.8778 136.913 65.8355 134.935L62.7614 112.608L74.8037 111.623L76.6251 134.378C77.8353 136.243 78.5233 138.338 78.6315 140.488C78.9857 145.864 76.1415 150.382 72.2784 150.582C68.4154 150.781 64.997 146.586 64.6438 141.212Z" fill="#FDB4B4"/>
<path d="M140.917 144.489C140.768 142.341 141.204 140.193 142.186 138.224L139.387 115.868L151.44 115L152.981 137.771C154.169 139.648 154.831 141.75 154.912 143.9C155.2 149.279 152.301 153.77 148.436 153.932C144.57 154.094 141.204 149.866 140.917 144.489Z" fill="#FDB4B4"/>
<path d="M62.7118 132.258L62.6711 132.065L56.395 102.251L63.8108 53.7024C64.4725 49.3681 68.844 46.2458 73.7734 46.5947C76.3478 46.7772 78.6575 47.8582 80.2778 49.6391C81.8978 51.4199 82.5987 53.6484 82.2514 55.9143L76.67 92.3252L80.1841 131.27L62.7118 132.258Z" fill="#E8E9EA"/>
<path d="M137.197 131.558L124.579 56.9858C123.923 54.7992 124.307 52.5108 125.666 50.5663C127.024 48.6217 129.165 47.2959 131.695 46.8327C136.533 45.9467 141.311 48.5654 142.574 52.7935L154.696 130.622L137.197 131.558Z" fill="#E8E9EA"/>
<path d="M107.714 66.7011C108.569 66.7011 109.263 66.087 109.263 65.3295C109.263 64.5721 108.569 63.958 107.714 63.958C106.858 63.958 106.165 64.5721 106.165 65.3295C106.165 66.087 106.858 66.7011 107.714 66.7011Z" fill="#D6D7D8"/>
<path d="M107.714 77.0856C108.569 77.0856 109.263 76.4716 109.263 75.7141C109.263 74.9566 108.569 74.3425 107.714 74.3425C106.858 74.3425 106.165 74.9566 106.165 75.7141C106.165 76.4716 106.858 77.0856 107.714 77.0856Z" fill="#D6D7D8"/>
<path d="M107.714 87.4701C108.569 87.4701 109.263 86.8561 109.263 86.0986C109.263 85.3411 108.569 84.7271 107.714 84.7271C106.858 84.7271 106.165 85.3411 106.165 86.0986C106.165 86.8561 106.858 87.4701 107.714 87.4701Z" fill="#D6D7D8"/>
<path d="M107.714 97.8546C108.569 97.8546 109.263 97.2406 109.263 96.4831C109.263 95.7256 108.569 95.1116 107.714 95.1116C106.858 95.1116 106.165 95.7256 106.165 96.4831C106.165 97.2406 106.858 97.8546 107.714 97.8546Z" fill="#D6D7D8"/>
<path d="M107.714 108.239C108.569 108.239 109.263 107.625 109.263 106.868C109.263 106.11 108.569 105.496 107.714 105.496C106.858 105.496 106.165 106.11 106.165 106.868C106.165 107.625 106.858 108.239 107.714 108.239Z" fill="#D6D7D8"/>
<path d="M107.714 118.624C108.569 118.624 109.263 118.01 109.263 117.252C109.263 116.495 108.569 115.881 107.714 115.881C106.858 115.881 106.165 116.495 106.165 117.252C106.165 118.01 106.858 118.624 107.714 118.624Z" fill="#D6D7D8"/>
<path d="M107.714 129.008C108.569 129.008 109.263 128.394 109.263 127.637C109.263 126.879 108.569 126.265 107.714 126.265C106.858 126.265 106.165 126.879 106.165 127.637C106.165 128.394 106.858 129.008 107.714 129.008Z" fill="#D6D7D8"/>
<path d="M107.714 139.393C108.569 139.393 109.263 138.779 109.263 138.021C109.263 137.264 108.569 136.65 107.714 136.65C106.858 136.65 106.165 137.264 106.165 138.021C106.165 138.779 106.858 139.393 107.714 139.393Z" fill="#D6D7D8"/>
<path d="M107.716 147.426L78.4043 143.967L77.8399 143.901L62.8596 113.32L53.9384 95.1123H77.1755L107.716 147.426Z" fill="#3C65A6"/>
<path d="M225.238 31.3836L243.873 22.345V48.1696H222.321L225.238 31.3836Z" fill="#2E2E41"/>
<path d="M247.868 37.1411L249.588 49.8195L237.193 71.6734L229.5 51.3332L233.117 36.72L247.868 37.1411Z" fill="#FDB4B4"/>
<path d="M250.229 50.5764H228.828V73.471H250.229V50.5764Z" fill="#3C65A6"/>
<path d="M267.885 171.819L273.473 245.619L259.736 246.031L241.574 172.438L267.885 171.819Z" fill="#2E2E41"/>
<path d="M234.589 171.407L240.177 245.207L226.44 245.619L208.279 172.026L234.589 171.407Z" fill="#2E2E41"/>
<path d="M282.398 187.472L282.071 187.471L194.558 187.218L194.637 186.944L217.136 108.02L211.5 68.1894C210.432 60.642 214.995 53.5082 222.855 50.4382L225.693 49.33L231.084 45.8591L237.98 67.4336L249.023 45.8423L253.888 50.1488L264.859 52.7261C271.697 54.3322 276.128 60.2229 275.164 66.4282L275.153 66.4714L258.398 108.799L282.398 187.472Z" fill="#E8E9EA"/>
<path d="M227.322 244.78L241.98 245.433L243.315 252.334C243.315 252.334 253.741 264.343 241.216 263.786C228.69 263.229 207.299 265.698 207.541 261.432C207.783 257.167 223.344 255.294 223.344 255.294L227.322 244.78Z" fill="#2E2E41"/>
<path d="M259.806 244.024L274.464 244.676L275.798 251.577C275.798 251.577 286.225 263.587 273.699 263.029C261.174 262.472 239.782 264.941 240.025 260.676C240.267 256.41 255.828 254.537 255.828 254.537L259.806 244.024Z" fill="#2E2E41"/>
<path d="M273.229 145.236C272.888 150.426 269.586 154.477 265.856 154.284C262.125 154.091 259.379 149.728 259.721 144.536C259.825 142.461 260.49 140.438 261.658 138.636L263.417 116.662L275.047 117.613L272.078 139.174C273.003 141.084 273.397 143.163 273.229 145.236Z" fill="#FDB4B4"/>
<path d="M213.468 143.262C213.002 148.444 209.605 152.432 205.88 152.169C202.155 151.906 199.513 147.493 199.98 142.308C200.135 140.235 200.847 138.225 202.059 136.446L204.346 114.51L215.95 115.68L212.463 137.18C213.342 139.108 213.687 141.193 213.468 143.262Z" fill="#FDB4B4"/>
<path d="M275.101 136.597L258.212 135.642L258.233 135.418L261.606 98.0268L256.217 62.8661C255.881 60.676 256.559 58.5218 258.124 56.8006C259.69 55.0791 261.923 54.0341 264.412 53.8577C269.177 53.5252 273.401 56.5386 274.041 60.7281L281.203 107.612L281.195 107.647L275.101 136.597Z" fill="#E8E9EA"/>
<path d="M216.28 135.165L199.364 134.259L199.401 134.023L211.066 59.1191C212.292 55.0052 216.913 52.4748 221.588 53.3308C224.033 53.7784 226.102 55.0601 227.415 56.9398C228.728 58.8196 229.1 61.0313 228.46 63.1678L216.28 135.165Z" fill="#E8E9EA"/>
<path d="M237.621 74.0385C238.447 74.0385 239.117 73.4455 239.117 72.714C239.117 71.9825 238.447 71.3895 237.621 71.3895C236.794 71.3895 236.125 71.9825 236.125 72.714C236.125 73.4455 236.794 74.0385 237.621 74.0385Z" fill="#D6D7D8"/>
<path d="M237.621 84.0667C238.447 84.0667 239.117 83.4737 239.117 82.7422C239.117 82.0107 238.447 81.4177 237.621 81.4177C236.794 81.4177 236.125 82.0107 236.125 82.7422C236.125 83.4737 236.794 84.0667 237.621 84.0667Z" fill="#D6D7D8"/>
<path d="M237.621 94.0949C238.447 94.0949 239.117 93.5019 239.117 92.7704C239.117 92.0389 238.447 91.4459 237.621 91.4459C236.794 91.4459 236.125 92.0389 236.125 92.7704C236.125 93.5019 236.794 94.0949 237.621 94.0949Z" fill="#D6D7D8"/>
<path d="M237.621 104.123C238.447 104.123 239.117 103.53 239.117 102.799C239.117 102.067 238.447 101.474 237.621 101.474C236.794 101.474 236.125 102.067 236.125 102.799C236.125 103.53 236.794 104.123 237.621 104.123Z" fill="#D6D7D8"/>
<path d="M237.621 114.151C238.447 114.151 239.117 113.558 239.117 112.827C239.117 112.095 238.447 111.502 237.621 111.502C236.794 111.502 236.125 112.095 236.125 112.827C236.125 113.558 236.794 114.151 237.621 114.151Z" fill="#D6D7D8"/>
<path d="M237.621 124.179C238.447 124.179 239.117 123.586 239.117 122.855C239.117 122.124 238.447 121.531 237.621 121.531C236.794 121.531 236.125 122.124 236.125 122.855C236.125 123.586 236.794 124.179 237.621 124.179Z" fill="#D6D7D8"/>
<path d="M237.621 134.208C238.447 134.208 239.117 133.615 239.117 132.883C239.117 132.152 238.447 131.559 237.621 131.559C236.794 131.559 236.125 132.152 236.125 132.883C236.125 133.615 236.794 134.208 237.621 134.208Z" fill="#D6D7D8"/>
<path d="M237.621 144.236C238.447 144.236 239.117 143.643 239.117 142.911C239.117 142.18 238.447 141.587 237.621 141.587C236.794 141.587 236.125 142.18 236.125 142.911C236.125 143.643 236.794 144.236 237.621 144.236Z" fill="#D6D7D8"/>
<path d="M239.892 43.6117C247.619 43.6117 253.884 38.0652 253.884 31.2232C253.884 24.3812 247.619 18.8347 239.892 18.8347C232.164 18.8347 225.899 24.3812 225.899 31.2232C225.899 38.0652 232.164 43.6117 239.892 43.6117Z" fill="#FDB4B4"/>
<path d="M247.224 16.7611C247.895 17.9685 246.832 19.4766 245.424 19.9842C244.017 20.4918 242.427 20.2862 240.927 20.0749C239.426 19.8636 237.834 19.6632 236.431 20.1798C234.615 20.8482 233.592 22.5249 232.71 24.0808C231.064 26.9855 229.417 29.8902 227.771 32.7948C226.967 34.214 226.144 35.697 226.129 37.2847C226.1 40.1992 228.712 42.5283 230.117 45.164C231.827 48.3732 231.686 52.3061 229.749 55.4127C227.812 58.5193 224.128 60.7204 220.149 61.1486C219.102 61.2612 217.994 61.249 217.053 60.8279C216.112 60.4068 215.394 59.4873 215.568 58.5665C215.909 56.7654 219.017 56.3446 219.588 54.5898C219.886 53.6737 219.358 52.6955 218.647 51.98C217.935 51.2645 217.035 50.7063 216.357 49.9662C214.792 48.2597 214.688 45.6253 216.114 43.8259C216.952 42.7685 218.248 41.9828 218.79 40.7833C219.252 39.7609 219.084 38.6116 218.909 37.5214C218.684 36.1206 218.46 34.7197 218.235 33.3188C217.973 31.6845 217.715 29.9915 218.233 28.4057C219.42 24.7717 224.055 23.065 226.772 20.146C228.035 18.7896 228.885 17.1583 230.181 15.8263C232.355 13.591 235.778 12.3579 239.098 12.6142C242.417 12.8705 245.547 14.6097 247.252 17.1446" fill="#2E2E41"/>
<path d="M245.015 16.9902C244.332 17.2067 244.078 17.995 244.275 18.6137C244.472 19.2325 244.987 19.7241 245.459 20.2128C250.793 25.7398 252.033 34.1 248.491 40.6589C247.549 42.4035 246.294 44.0453 245.786 45.926C245.416 47.2944 245.436 48.7955 244.578 49.9801C243.705 51.1862 241.976 51.9944 241.804 53.4188C241.695 54.333 242.324 55.2209 243.168 55.7568C244.011 56.2928 245.042 56.538 246.055 56.7379C248.689 57.2576 251.383 57.5413 254.081 57.5833C254.961 57.597 255.868 57.5802 256.675 57.2698C257.482 56.9595 258.171 56.2864 258.18 55.5075C258.188 54.8953 257.789 54.3306 257.738 53.72C257.585 51.8905 260.366 50.9172 260.908 49.1466C261.264 47.9824 260.562 46.7845 259.815 45.7763C259.067 44.768 258.214 43.7093 258.233 42.5034C258.25 41.3489 259.068 40.3321 259.387 39.2124C259.826 37.6636 259.286 36.0436 258.75 34.5187C258.294 33.2222 257.839 31.9258 257.383 30.6294C256.898 29.2512 256.414 27.8731 255.93 26.4949C255.084 24.0889 254.196 21.6132 252.366 19.6835C250.536 17.7538 247.503 16.489 244.8 17.2769" fill="#2E2E41"/>
<path d="M254.55 64.9959L253.591 64.7484C255.589 58.6829 251.281 47.3637 251.238 47.2501L252.183 46.9646C252.366 47.4395 256.636 58.6647 254.55 64.9959Z" fill="#3F3C57"/>
<path d="M254.071 71.9629C256.375 71.9629 258.244 70.3088 258.244 68.2683C258.244 66.2278 256.375 64.5737 254.071 64.5737C251.766 64.5737 249.898 66.2278 249.898 68.2683C249.898 70.3088 251.766 71.9629 254.071 71.9629Z" fill="#3F3C57"/>
<path d="M226.652 81.3483H224.121C223.845 81.3483 223.622 81.1502 223.622 80.906C223.622 80.6618 223.845 80.4638 224.121 80.4638H226.652C227.35 80.4638 228.005 80.2232 228.497 79.7861C228.989 79.3493 229.26 78.7686 229.259 78.1515L229.228 64.3505C229.228 61.3523 226.474 58.9139 223.089 58.9139C219.703 58.9139 216.949 61.3523 216.949 64.3496L216.979 77.2674C216.982 78.5276 218.143 79.5607 219.566 79.5704L221.303 79.5821C221.579 79.584 221.801 79.7833 221.799 80.0278C221.797 80.2707 221.573 80.4666 221.299 80.4666H221.295L219.558 80.4549C217.59 80.4415 215.984 79.0122 215.98 77.2691L215.95 64.3505C215.95 60.8647 219.152 58.0294 223.089 58.0294C227.025 58.0294 230.227 60.8647 230.227 64.3496L230.258 78.1497C230.26 79.0036 229.886 79.8067 229.204 80.4109C228.523 81.0153 227.616 81.3483 226.652 81.3483Z" fill="#3F3C57"/>
<path d="M221.299 81.5919C222.277 81.5919 223.07 80.8901 223.07 80.0244C223.07 79.1587 222.277 78.4569 221.299 78.4569C220.322 78.4569 219.529 79.1587 219.529 80.0244C219.529 80.8901 220.322 81.5919 221.299 81.5919Z" fill="#3F3C57"/>
<path d="M224.121 82.4736C225.099 82.4736 225.892 81.7718 225.892 80.9061C225.892 80.0404 225.099 79.3386 224.121 79.3386C223.143 79.3386 222.351 80.0404 222.351 80.9061C222.351 81.7718 223.143 82.4736 224.121 82.4736Z" fill="#3F3C57"/>
<path d="M121.916 58.3668L120.957 58.1194C122.955 52.0538 118.695 40.5593 118.652 40.4457L119.85 41.2457C120.033 41.7206 124.002 52.0357 121.916 58.3668Z" fill="#3F3C57"/>
<path d="M88.2039 59.4444L89.1629 59.197C87.1649 53.1314 91.4731 41.8122 91.5166 41.6986L90.4907 42.307C90.3078 42.7819 86.1181 53.1133 88.2039 59.4444Z" fill="#3F3C57"/>
<path d="M121.436 65.3338C123.741 65.3338 125.609 63.6797 125.609 61.6393C125.609 59.5988 123.741 57.9447 121.436 57.9447C119.132 57.9447 117.263 59.5988 117.263 61.6393C117.263 63.6797 119.132 65.3338 121.436 65.3338Z" fill="#3F3C57"/>
<path d="M92.6527 82.1647H90.122C89.8459 82.1647 89.6225 81.9667 89.6225 81.7224C89.6225 81.4782 89.8459 81.2802 90.122 81.2802H92.6527C93.3502 81.2802 94.0054 81.0396 94.498 80.6025C94.9902 80.1657 95.261 79.585 95.2595 78.9679L95.2288 65.1669C95.2288 62.1687 92.4746 59.7303 89.0893 59.7303C85.7039 59.7303 82.9493 62.1687 82.9493 65.166L82.9801 78.0838C82.983 79.344 84.1435 80.3771 85.5669 80.3868L87.3039 80.3985C87.5795 80.4004 87.8015 80.5997 87.7995 80.8442C87.7976 81.0871 87.5742 81.283 87.3 81.283H87.2961L85.5591 81.2713C83.5903 81.2579 81.985 79.8286 81.981 78.0855L81.9503 65.1669C81.9503 61.6811 85.1527 58.8458 89.0893 58.8458C93.0254 58.8458 96.2278 61.6811 96.2278 65.166L96.2585 78.9661C96.2605 79.82 95.8863 80.6231 95.2049 81.2273C94.5239 81.8317 93.6171 82.1647 92.6527 82.1647Z" fill="#3F3C57"/>
<path d="M87.3002 82.4083C88.278 82.4083 89.0706 81.7065 89.0706 80.8408C89.0706 79.9751 88.278 79.2733 87.3002 79.2733C86.3224 79.2733 85.5298 79.9751 85.5298 80.8408C85.5298 81.7065 86.3224 82.4083 87.3002 82.4083Z" fill="#3F3C57"/>
<path d="M90.1219 83.29C91.0997 83.29 91.8923 82.5882 91.8923 81.7225C91.8923 80.8568 91.0997 80.155 90.1219 80.155C89.1441 80.155 88.3514 80.8568 88.3514 81.7225C88.3514 82.5882 89.1441 83.29 90.1219 83.29Z" fill="#3F3C57"/>
</g>
<defs>
<clipPath id="clip0_58_801">
<rect width="346" height="264" fill="white"/>
</clipPath>
</defs>
</svg>
